PathFileType	4	(X/Y/Z)	D:\Documents\Paper\paper_current\paper_step_1_data\data_step_3\marker\70DL\subject_01.tsv
DataRate	CameraRate	NumFrames	NumMarkers	Units	OrigDataRate	OrigDataStartFrame	OrigNumFrames
200	200	9	39	mm	200	1627	200
Frame#	Time	Top.Head			L.Acromium			R.Acromium			Sternum			L.ASIS			R.ASIS			V.Sacral			L.Ankle.Lat			L.Toe.Tip			R.Heel			R.Ankle.Med			R.Ankle.Lat			L.Toe.Med			L.Toe.Lat			L.Heel			L.Ankle.Med			L.Shank1			L.Shank2			R.Toe.Tip			R.Toe.Med			R.Toe.Lat			L.Thigh2			L.Thigh1			L.Thigh3			R.Thigh3			R.Thigh1			R.Thigh2			R.Shank1			R.Shank2			R.Shank3			L.Shank3			L.Shank4			R.Shank4			L.Thigh4			R.Thigh4			R.Heel.Lat			R.Heel.Med			L.Heel.Lat			L.Heel.Med		
		X1	Y1	Z1	X2	Y2	Z2	X3	Y3	Z3	X4	Y4	Z4	X5	Y5	Z5	X6	Y6	Z6	X7	Y7	Z7	X8	Y8	Z8	X9	Y9	Z9	X10	Y10	Z10	X11	Y11	Z11	X12	Y12	Z12	X13	Y13	Z13	X14	Y14	Z14	X15	Y15	Z15	X16	Y16	Z16	X17	Y17	Z17	X18	Y18	Z18	X19	Y19	Z19	X20	Y20	Z20	X21	Y21	Z21	X22	Y22	Z22	X23	Y23	Z23	X24	Y24	Z24	X25	Y25	Z25	X26	Y26	Z26	X27	Y27	Z27	X28	Y28	Z28	X29	Y29	Z29	X30	Y30	Z30	X31	Y31	Z31	X32	Y32	Z32	X33	Y33	Z33	X34	Y34	Z34	X35	Y35	Z35	X36	Y36	Z36	X37	Y37	Z37	X38	Y38	Z38	X39	Y39	Z39
1628	8.135	168.177	1639.358	-660.263	88.498	1426.062	-916.109	-27.24	1414.349	-611.09	108.82	1326.177	-731.853	77.859	918.775	-874.662	48.18	927.793	-638.911	-104.436	942.505	-767.722	-92.031	105.796	-924.293	83.192	50.181	-904.485	122.054	60.536	-637.962	229.387	139.47	-653.758	192.626	115.835	-572.776	29.153	43.253	-853.655	1.458	46.421	-955.83	-199.662	46.075	-897.061	-96.322	108.986	-836.094	31.396	376.194	-928.463	14.517	296.709	-943.637	399.224	78.021	-565.694	348.711	72.167	-621.787	298.688	50.115	-529.387	85.093	607.439	-915.668	76.641	688.841	-922.081	18.657	682.267	-948.504	41.707	612.791	-597.684	95.924	631.301	-566.679	134.327	558.636	-579.024	197.498	415.398	-559.926	203.102	329.08	-556.325	134.27	412.651	-558.475	-28.115	391.391	-948.6	-47.367	307.526	-960.482	139.224	329.915	-554.656	25.354	594.371	-941.482	83.519	537.006	-610.708	156.06	49.657	-579.153	195.144	57.512	-673.583	-144.068	36.462	-949.024	-142.86	30.814	-842.024
1629	8.14	164.438	1640.357	-660.306	86.96	1426.813	-916.694	-32.227	1415.636	-613.004	105.199	1327.231	-732.055	75.686	919.645	-874.92	43.302	928.826	-639.482	-107.903	943.859	-770.042	-92.143	105.997	-924.321	83.249	50.237	-904.514	113.094	60.551	-644.926	220.81	139.959	-656.506	181.39	115.845	-577.029	29.185	43.299	-853.582	1.488	46.485	-955.778	-199.632	46.191	-897.004	-96.4	109.13	-836.107	29.772	377.162	-928.724	13.375	297.524	-943.78	387.205	78.623	-562	338.923	72.533	-620.184	285.403	50.584	-529.665	83.345	608.257	-915.697	74.815	689.671	-922.307	17.019	682.962	-949.095	35.664	613.244	-599.992	89.037	631.481	-567.525	127.765	559.044	-579.578	189.558	415.111	-560.959	194.24	328.78	-558.013	126.384	413.067	-560.941	-29.806	391.961	-948.831	-48.48	308.009	-960.864	130.377	330.242	-557.847	23.928	595.053	-941.725	77.661	537.781	-612.655	144.814	49.646	-584.771	187.45	57.712	-677.774	-144.041	36.597	-948.994	-142.824	30.904	-841.988
1630	8.145	160.678	1641.389	-660.325	85.353	1427.586	-917.207	-37.185	1416.931	-614.889	101.591	1328.323	-732.223	73.537	920.403	-875.09	38.424	929.886	-640.045	-111.312	945.233	-772.403	-92.278	106.182	-924.398	83.306	50.317	-904.55	103.97	60.717	-651.711	212.052	140.38	-659.215	170.031	115.969	-581.274	29.201	43.346	-853.51	1.52	46.541	-955.737	-199.608	46.288	-896.982	-96.492	109.278	-836.146	28.164	378.104	-928.973	12.244	298.32	-943.918	374.803	79.049	-558.728	328.723	72.764	-618.816	271.87	50.978	-530.242	81.625	609.005	-915.64	73.015	690.468	-922.478	15.397	683.575	-949.509	29.674	613.755	-602.237	82.262	631.708	-568.51	121.264	559.503	-580.199	181.545	414.848	-561.993	185.275	328.499	-559.741	118.411	413.487	-563.41	-31.469	392.517	-949.079	-49.566	308.463	-961.253	121.435	330.583	-561.062	22.509	595.72	-941.925	71.787	538.624	-614.508	133.461	49.755	-590.357	179.443	57.926	-681.808	-144.014	36.705	-948.984	-142.793	30.997	-841.969
1631	8.15	156.886	1642.446	-660.324	83.682	1428.379	-917.656	-42.11	1418.223	-616.747	98.004	1329.451	-732.363	71.435	921.121	-875.197	33.548	930.963	-640.597	-114.649	946.606	-774.798	-92.441	106.343	-924.528	83.361	50.419	-904.592	94.678	61.008	-658.317	203.109	140.682	-661.856	158.567	116.184	-585.493	29.203	43.393	-853.453	1.554	46.59	-955.709	-199.591	46.357	-896.996	-96.605	109.426	-836.216	26.562	379.011	-929.209	11.109	299.091	-944.054	362.073	79.325	-555.882	318.156	72.883	-617.691	258.148	51.291	-531.118	79.91	609.669	-915.491	71.229	691.227	-922.602	13.763	684.075	-949.707	23.731	614.314	-604.386	75.614	631.978	-569.609	114.843	559.993	-580.88	173.436	414.59	-563.003	176.179	328.221	-561.474	110.328	413.898	-565.871	-33.116	393.054	-949.347	-50.647	308.88	-961.627	112.374	330.93	-564.288	21.047	596.38	-942.116	65.924	539.493	-616.264	122.016	49.978	-595.92	171.14	58.154	-685.704	-143.987	36.78	-948.996	-142.771	31.088	-841.97
1632	8.155	153.049	1643.519	-660.306	81.956	1429.191	-918.05	-46.999	1419.502	-618.58	94.444	1330.608	-732.48	69.473	921.836	-875.218	28.672	932.04	-641.139	-117.9	947.961	-777.22	-92.634	106.472	-924.708	83.411	50.534	-904.636	85.22	61.397	-664.743	193.974	140.828	-664.411	147.016	116.473	-589.682	29.197	43.442	-853.421	1.588	46.633	-955.697	-199.585	46.393	-897.044	-96.743	109.569	-836.32	24.955	379.878	-929.434	9.962	299.834	-944.191	349.065	79.478	-553.452	307.257	72.907	-616.814	244.287	51.514	-532.287	78.175	610.241	-915.25	69.45	691.94	-922.685	12.084	684.442	-949.667	17.833	614.916	-606.411	69.097	632.296	-570.768	108.516	560.489	-581.62	165.205	414.322	-563.967	166.929	327.934	-563.187	102.119	414.301	-568.307	-34.759	393.57	-949.634	-51.74	309.257	-961.975	103.179	331.285	-567.505	19.513	597.036	-942.318	60.079	540.357	-617.915	110.485	50.309	-601.453	162.555	58.395	-689.48	-143.964	36.82	-949.029	-142.762	31.17	-841.99
1633	8.16	149.156	1644.601	-660.273	80.184	1430.02	-918.398	-51.848	1420.759	-620.385	90.915	1331.78	-732.574	67.639	922.352	-875.118	23.791	933.099	-641.668	-121.057	949.283	-779.657	-92.854	106.569	-924.932	83.454	50.648	-904.674	75.597	61.861	-670.989	184.639	140.826	-666.891	135.389	116.826	-593.845	29.187	43.495	-853.417	1.618	46.673	-955.699	-199.587	46.395	-897.121	-96.906	109.702	-836.454	23.333	380.707	-929.654	8.798	300.548	-944.335	335.817	79.525	-551.418	296.058	72.852	-616.176	230.315	51.639	-533.737	76.397	610.726	-914.93	67.673	692.602	-922.732	10.33	684.675	-949.403	11.97	615.562	-608.283	62.703	632.674	-571.917	102.289	560.962	-582.419	156.831	414.03	-564.873	157.51	327.628	-564.862	93.777	414.704	-570.699	-36.407	394.068	-949.938	-52.858	309.596	-962.299	93.846	331.657	-570.697	17.891	597.689	-942.536	54.248	541.19	-619.448	98.862	50.736	-606.936	153.704	58.649	-693.154	-143.944	36.826	-949.078	-142.767	31.238	-842.025
1634	8.165	145.195	1645.684	-660.222	78.374	1430.861	-918.709	-56.653	1421.984	-622.159	87.412	1332.95	-732.644	65.872	922.848	-874.951	18.896	934.121	-642.186	-124.114	950.556	-782.099	-93.096	106.634	-925.187	83.486	50.748	-904.701	65.817	62.377	-677.056	175.107	140.731	-669.337	123.691	117.234	-597.983	29.173	43.553	-853.443	1.643	46.715	-955.715	-199.601	46.363	-897.22	-97.092	109.822	-836.617	21.686	381.5	-929.875	7.615	301.234	-944.491	322.362	79.476	-549.745	284.58	72.728	-615.766	216.242	51.655	-535.446	74.564	611.148	-914.559	65.9	693.206	-922.744	8.482	684.809	-948.981	6.134	616.258	-609.976	56.418	633.116	-573.002	96.16	561.383	-583.284	148.3	413.708	-565.712	147.916	327.3	-566.496	85.303	415.115	-573.033	-38.069	394.55	-950.256	-54.009	309.9	-962.606	84.376	332.057	-573.848	16.179	598.337	-942.769	48.421	541.972	-620.854	87.146	51.244	-612.352	144.598	58.917	-696.741	-143.929	36.799	-949.137	-142.788	31.289	-842.071
1635	8.17	141.16	1646.758	-660.153	76.532	1431.701	-918.986	-61.411	1423.166	-623.902	83.929	1334.094	-732.687	64.158	923.38	-874.749	13.984	935.088	-642.691	-127.075	951.77	-784.537	-93.353	106.671	-925.46	83.506	50.827	-904.711	55.886	62.93	-682.945	165.386	140.611	-671.789	111.928	117.682	-602.091	29.156	43.619	-853.494	1.664	46.764	-955.746	-199.624	46.297	-897.334	-97.301	109.925	-836.801	20.008	382.259	-930.104	6.41	301.892	-944.663	308.731	79.332	-548.401	272.845	72.541	-615.565	202.071	51.561	-537.373	72.68	611.536	-914.185	64.137	693.748	-922.725	6.555	684.911	-948.508	0.309	617.003	-611.48	50.225	633.615	-573.996	90.117	561.729	-584.214	139.606	413.348	-566.487	138.144	326.945	-568.096	76.707	415.54	-575.306	-39.754	395.014	-950.587	-55.198	310.172	-962.901	74.779	332.488	-576.952	14.383	598.979	-943.015	42.581	542.688	-622.125	75.333	51.808	-617.689	135.249	59.199	-700.253	-143.922	36.74	-949.2	-142.826	31.32	-842.123
1636	8.175	137.044	1647.815	-660.064	74.66	1432.518	-919.227	-66.122	1424.297	-625.61	80.456	1335.187	-732.698	62.369	923.852	-874.467	9.055	935.991	-643.184	-129.948	952.919	-786.96	-93.619	106.684	-925.739	83.512	50.882	-904.704	45.813	63.513	-688.659	155.481	140.513	-674.266	100.099	118.148	-606.161	29.137	43.697	-853.564	1.679	46.826	-955.794	-199.658	46.197	-897.457	-97.529	110.01	-837.002	18.293	382.985	-930.345	5.18	302.522	-944.852	294.95	79.09	-547.347	260.873	72.29	-615.553	187.814	51.372	-539.464	70.773	611.917	-913.855	62.389	694.227	-922.679	4.587	685.054	-948.099	-5.516	617.781	-612.802	44.101	634.155	-574.896	84.134	561.984	-585.201	130.747	412.944	-567.212	128.2	326.559	-569.675	68.003	415.976	-577.515	-41.473	395.452	-950.929	-56.428	310.414	-963.194	65.068	332.95	-580.002	12.513	599.612	-943.272	36.71	543.331	-623.26	63.426	52.399	-622.94	125.665	59.495	-703.697	-143.922	36.648	-949.259	-142.88	31.329	-842.178
